# xmcd CD database file
#
# Track frame offsets:
#	150
#	8064
#	22373
#	41109
#	53646
#	66188
#	82989
#	96905
#	109899
#	121439
#	137320
#	154896
#	167361
#	189003
#
# Disc length: 2729 seconds
#
# Revision: 3
# Processed by: cddbd v1.5.2PL0 Copyright (c) Steve Scherf et al.
# Submitted via: CDex 1.70beta2
#
DISCID=ae0aa70e
DTITLE=Liza Minelli - Confessions
DYEAR=2010
DGENRE=Jazz
TTITLE0=Confession
TTITLE1=You Fascinate Me So
TTITLE2=All The Way
TTITLE3=I Hadn't Anyone Till You
TTITLE4=This Heart Of Mine
TTITLE5=I Got Lost In His Arms
TTITLE6=Remind Me
TTITLE7=Close Your Eyes
TTITLE8=He's A Tramp
TTITLE9=I Must Have That Man
TTITLE10=On Such A Night As This
TTITLE11=Moments Like This
TTITLE12=If I Had You
TTITLE13=At Last
EXTD=YEAR: 2010
EXTT0=
EXTT1=
EXTT2=
EXTT3=
EXTT4=
EXTT5=
EXTT6=
EXTT7=
EXTT8=
EXTT9=
EXTT10=
EXTT11=
EXTT12=
EXTT13=
PLAYORDER=
